<?xml version="1.0" ?><!DOCTYPE svg  PUBLIC '-//W3C//DTD SVG 1.1//EN'  'http://www.w3.org/Graphics/SVG/1.1/DTD/svg11.dtd'><svg height="8.26772in" style="shape-rendering:geometricPrecision; text-rendering:geometricPrecision; image-rendering:optimizeQuality; fill-rule:evenodd; clip-rule:evenodd" version="1.1" viewBox="0 0 826772 826772" width="8.26772in" xml:space="preserve" xmlns="http://www.w3.org/2000/svg" xmlns:xlink="http://www.w3.org/1999/xlink"><defs><style type="text/css">
   <![CDATA[
    .fil0 {fill:#719A4E}
    .fil2 {fill:#719A4E}
    .fil1 {fill:#7FAD5B}
    .fil3 {fill:white;fill-rule:nonzero}
   ]]>
  </style></defs><g id="Layer_x0020_1"><circle class="fil0" cx="413386" cy="413386" r="413386"/><path class="fil1" d="M825594 444750c-16029,213654 -194454,382022 -412208,382022 -217755,0 -396180,-168368 -412208,-382022 16028,-213654 194453,-388715 412208,-388715 217754,0 396179,175061 412208,388715z"/><path class="fil2" d="M804065 548790c-56005,161612 -209443,277704 -390050,277974l-160740 -259483 0 -13c-20310,-21755 -32775,-50848 -32775,-82682l0 -142182c0,-66996 54985,-121904 122250,-121904l85513 0c22257,2639 51676,16813 73033,37515l3 0 302766 290775z"/><path class="fil3" d="M342750 606272l140499 0c67266,0 121918,-54806 122289,-121686l734 -98473 -1105 -5376 -3281 -6699 -5412 -4244c-7112,-5554 -43093,348 -52763,-8410 -6879,-6301 -7945,-17655 -10003,-32970 -3858,-29807 -6327,-31338 -10970,-41393 -16960,-35851 -62918,-62778 -94475,-66521l-85513 0c-67265,0 -122250,54908 -122250,121904l0 142182c0,66880 54985,121686 122250,121686zm1556 -286165l0 0 67793 0c12936,0 23417,10467 23417,23262 0,12730 -10492,23300 -23417,23300l-67793 0c-12936,0 -23415,-10570 -23415,-23300 0,-12782 10479,-23262 23415,-23262zm0 139494l0 0 137747 0c12884,0 23301,10429 23301,23211 0,12603 -10417,23212 -23301,23212l-137747 0c-12936,0 -23415,-10597 -23415,-23212 0,-12794 10479,-23211 23415,-23211z"/></g></svg>